<svg width="211" height="122" viewBox="0 0 211 122" fill="none" xmlns="http://www.w3.org/2000/svg">
<g clip-path="url(#clip0)">
<path opacity="0.9" d="M-9.0332e-05 35.4658C-0.0514147 30.6536 0.737939 25.8694 2.33241 21.3286C3.78954 17.1486 6.10024 13.3172 9.11779 10.0777C12.1774 6.83183 15.914 4.2989 20.0625 2.65853C29.6518 -0.853137 40.1758 -0.853137 49.765 2.65853C53.945 4.28846 57.7231 6.80263 60.8402 10.0287C63.8791 13.2606 66.217 17.0855 67.7072 21.2634C70.8279 30.43 70.8279 40.3711 67.7072 49.5377C66.2433 53.7304 63.9149 57.5689 60.8728 60.805C57.7711 64.0421 54.0035 66.5679 49.8302 68.2078C40.2448 71.7408 29.7132 71.7408 20.1278 68.2078C15.9716 66.5869 12.2236 64.0705 9.15042 60.8376C6.12535 57.6041 3.80382 53.7787 2.33241 49.6029C0.737939 45.0621 -0.0514147 40.278 -9.0332e-05 35.4658ZM12.2332 35.4658C12.2172 39.4249 12.705 43.3699 13.6849 47.2059C14.518 50.6209 16.0022 53.8431 18.0563 56.6959C20.0023 59.3467 22.5299 61.5165 25.4452 63.0389C28.7157 64.6607 32.3324 65.461 35.9821 65.3706C39.3576 65.4413 42.6926 64.626 45.6546 63.0063C48.3851 61.4363 50.7135 59.2537 52.4563 56.6307C54.338 53.7221 55.7063 50.5122 56.5015 47.1408C57.4262 43.2913 57.8754 39.343 57.839 35.3842C57.8602 31.4312 57.3779 27.4916 56.4036 23.6604C55.5636 20.2479 54.08 17.027 52.0322 14.1704C50.0934 11.5068 47.5572 9.33441 44.627 7.82744C41.3344 6.18564 37.6863 5.38456 34.0085 5.49573C30.516 5.39867 27.0585 6.21361 23.9772 7.86009C21.2379 9.41226 18.911 11.5986 17.1918 14.2356C15.3443 17.1345 14.0554 20.3531 13.3913 23.7256C12.6017 27.5832 12.2136 31.512 12.2332 35.4495V35.4658ZM78.5703 82.4102C75.8549 84.743 72.7225 86.541 69.3383 87.7095C66.043 88.8149 62.587 89.3659 59.1112 89.3401C55.7837 89.3128 52.4811 88.7626 49.3246 87.7095C45.834 86.6225 42.1586 85.3724 38.2983 83.9592C34.4489 82.5732 30.469 81.2036 26.3586 79.8828C22.2554 78.5527 18.024 77.6565 13.7338 77.2087L14.5331 73.2626C16.0592 73.0723 17.5949 72.9689 19.1328 72.9528C22.8518 72.9555 26.5597 73.3601 30.1917 74.1594C33.8454 74.9747 37.548 75.79 41.2669 76.8336C44.9859 77.8772 48.7374 78.6924 52.5216 79.5077C56.3172 80.3188 60.1884 80.7233 64.0698 80.7144C66.1999 80.7058 68.3264 80.5369 70.4311 80.2089C72.648 79.8502 74.8306 79.3047 76.9556 78.5783L78.5703 82.4102Z" fill="#301D31"/>
<path d="M108.42 61.3913C108.102 62.6122 107.59 63.7739 106.903 64.8318C106.205 65.9311 105.335 66.9111 104.325 67.7343C103.291 68.5852 102.115 69.2475 100.851 69.691C99.4956 70.1744 98.0659 70.4172 96.6266 70.4084C90.8199 70.4084 86.4812 68.7778 83.5778 65.3047C80.6744 61.8316 79.2227 56.5648 79.2064 49.3087C79.1416 46.1561 79.6274 43.0164 80.6418 40.0307C81.4974 37.4992 82.8945 35.1844 84.7359 33.2475C86.536 31.4013 88.7261 29.9807 91.1461 29.0895C93.8266 28.1148 96.6617 27.6341 99.5137 27.6709C100.623 27.6709 101.553 27.6709 102.336 27.6709C103.073 27.7097 103.808 27.7858 104.537 27.8992C105.198 27.998 105.852 28.1397 106.495 28.3232L108.534 28.9101V14.6589H102.009V10.7455H116.689L116.787 65.533H122.251V69.4464H109.463L108.746 61.2935L108.42 61.3913ZM98.3719 65.109C99.6033 65.1808 100.836 65.0026 101.997 64.585C103.158 64.1674 104.222 63.5193 105.125 62.6795C106.887 60.8062 108.081 58.4707 108.566 55.9452V32.8562C107.454 32.3124 106.275 31.9176 105.059 31.6822C103.391 31.3872 101.697 31.2615 100.003 31.3071C98.2054 31.2749 96.43 31.7074 94.8487 32.5627C93.3187 33.4403 92.0255 34.6771 91.0809 36.1663C89.9946 37.912 89.2167 39.8314 88.781 41.8407C87.8011 46.3093 87.74 50.9304 88.6016 55.4234C88.9333 57.2007 89.5619 58.9095 90.4611 60.4782C91.2514 61.8608 92.3722 63.0261 93.7233 63.8698C95.1203 64.7236 96.7351 65.1541 98.3719 65.109Z" fill="black"/>
<path d="M163.861 64.0329C162.392 66.06 160.395 67.645 158.087 68.6148C155.35 69.7994 152.391 70.3833 149.409 70.3269C146.287 70.3848 143.18 69.8708 140.243 68.8105C137.733 67.8942 135.459 66.4291 133.588 64.5221C131.765 62.5953 130.38 60.2983 129.526 57.7878C128.573 54.9512 128.105 51.9746 128.14 48.9826C128.14 42.0037 129.885 36.6935 133.376 33.0518C136.866 29.4102 141.792 27.5894 148.153 27.5894C150.232 27.591 152.303 27.8484 154.319 28.3558C156.261 28.8304 158.09 29.6838 159.702 30.8669C161.323 32.1395 162.629 33.7689 163.518 35.6282C164.566 37.9403 165.068 40.4617 164.986 42.9984C164.986 43.8789 164.986 44.8246 164.84 45.803C164.693 46.7813 164.579 47.8412 164.367 48.9337H136.883C136.864 51.0565 137.178 53.1692 137.812 55.1951C138.373 57.0066 139.319 58.6754 140.585 60.0869C141.868 61.4691 143.446 62.5447 145.201 63.2339C147.279 64.0395 149.498 64.4221 151.726 64.359C153.681 64.377 155.623 64.0286 157.451 63.3317C158.98 62.7894 160.408 61.9959 161.675 60.9837L163.861 64.0329ZM147.729 31.2745C146.268 31.2427 144.814 31.4804 143.44 31.9757C142.183 32.458 141.083 33.2758 140.259 34.34C139.268 35.6289 138.547 37.104 138.138 38.6774C137.561 40.8684 137.222 43.1153 137.127 45.379H156.081C156.081 44.9062 156.162 44.417 156.195 43.9278C156.227 43.4387 156.195 42.9821 156.195 42.5582C156.327 39.6933 155.6 36.8544 154.107 34.4052C153.406 33.3761 152.45 32.5465 151.332 31.9977C150.214 31.449 148.973 31.1998 147.729 31.2745Z" fill="black"/>
<path d="M205.373 58.4889C205.373 59.6792 205.373 60.9022 205.454 62.1251C205.536 63.3481 205.601 64.4569 205.699 65.3863H210.951V69.2997H198.441L197.625 61.8642H197.217C196.94 62.9637 196.453 63.9991 195.782 64.9134C195.045 65.9414 194.147 66.8443 193.123 67.5875C191.967 68.4154 190.683 69.0489 189.323 69.4627C187.74 69.9609 186.088 70.203 184.429 70.1801C182.766 70.1983 181.111 69.9337 179.536 69.3975C178.113 68.9268 176.795 68.1848 175.654 67.2125C174.566 66.2837 173.697 65.1254 173.109 63.8209C172.487 62.4033 172.175 60.8687 172.196 59.3205C172.114 57.0929 172.681 54.8894 173.827 52.9776C174.99 51.2293 176.632 49.8535 178.557 49.0153C181.046 47.9416 183.678 47.2384 186.37 46.9281C190.006 46.4674 193.667 46.2278 197.331 46.2107C197.44 45.4272 197.494 44.6372 197.495 43.8463V41.645C197.649 39.0999 197.084 36.5627 195.863 34.3237C194.771 32.6931 192.813 31.8126 189.991 31.8126C188.948 31.8126 187.822 31.8126 186.615 31.9757C185.477 32.0679 184.368 32.3838 183.353 32.9051V39.9655H176.306V31.2745C178.448 30.1791 180.687 29.2839 182.994 28.6004C185.933 27.7691 188.976 27.3681 192.03 27.4101C194.483 27.3193 196.931 27.7013 199.24 28.5352C200.861 29.1536 202.298 30.1749 203.415 31.5028C204.426 32.728 205.1 34.1945 205.373 35.7586C205.663 37.2687 205.811 38.8028 205.813 40.3406C205.813 43.6017 205.813 46.7813 205.634 49.7653C205.454 52.7493 205.373 55.668 205.373 58.4889ZM188.083 65.0112C189.235 65.0295 190.381 64.8303 191.459 64.4242C192.396 64.0496 193.274 63.5446 194.069 62.9241C194.798 62.3403 195.455 61.6726 196.026 60.9348C196.526 60.2565 196.983 59.5486 197.397 58.8151V49.5044C194.625 49.4535 191.855 49.6775 189.127 50.173C187.41 50.4972 185.758 51.0974 184.234 51.9503C183.155 52.5424 182.293 53.4617 181.771 54.5755C181.326 55.605 181.098 56.7152 181.102 57.8367C181.039 58.8123 181.174 59.7906 181.499 60.7126C181.824 61.6345 182.333 62.4811 182.994 63.2013C183.689 63.8265 184.501 64.3083 185.382 64.6189C186.264 64.9295 187.198 65.0628 188.132 65.0112H188.083Z" fill="black"/>
<g opacity="0.9">
<path opacity="0.9" d="M87.933 83.9096C96.8878 82.279 107.099 81.4638 109.741 92.0625C111.943 100.949 110.72 110.863 111.454 119.945C111.894 125.326 122.643 118.82 123.295 115.331C129.053 83.8444 167.955 83.6814 193.221 82.4421C197.25 82.2464 206.27 73.6533 199.093 74.012C166.047 75.6426 118.81 79.8332 111.454 119.945L123.295 115.331C122.447 105.075 124.796 91.557 119.854 82.116C114.471 71.8433 100.28 74.175 91.0158 75.8872C86.3345 76.7514 79.598 85.4424 87.933 83.9096Z" fill="#301D31"/>
</g>
</g>
<defs>
<clipPath id="clip0">
<rect width="211" height="122" fill="white"/>
</clipPath>
</defs>
</svg>
